<?xml version="1.0" encoding="UTF-8"?><svg xmlns="http://www.w3.org/2000/svg" viewBox="0 0 73.5 64.87"><defs><style>.cls-1{fill:#b76a8a;opacity:0.15;}.cls-2,.cls-3,.cls-4{fill:none;stroke:#6a80b9;stroke-miterlimit:10;}.cls-2{stroke-width:5px;}.cls-3{stroke-width:3px;}.cls-4{stroke-width:2px;}.cls-5{fill:#6a80b9;}</style></defs><title>Asset 13</title><g id="Layer_2" data-name="Layer 2"><g id="icon"><path class="cls-1" d="M68.5 18.87h-57v41a5 5 0 0 0 5 5h52a5 5 0 0 0 5-5v-36a5 5 0 0 0-5-5z" fill="#b76a8a" opacity="0.15"/><rect class="cls-2" x="2.5" y="9.87" width="62" height="46" rx="2" ry="2" fill="none" stroke="#6a80b9" stroke-miterlimit="10" stroke-width="5px"/><path class="cls-3" d="M46.18 6.43c1.13 1.89.25 3.43-1.95 3.43H22.77c-2.2 0-3.08-1.54-1.95-3.43l.9-1.5a7.84 7.84 0 0 1 6.05-3.43h11.46a7.84 7.84 0 0 1 6.05 3.43z" fill="none" stroke="#6a80b9" stroke-miterlimit="10" stroke-width="3px"/><path class="cls-4" fill="none" stroke="#6a80b9" stroke-miterlimit="10" stroke-width="2px" d="M2.5 30.15h62"/><path class="cls-5" fill="#6a80b9" d="M28.5 26.8h10v6.7h-10z"/></g></g><metadata><rdf:RDF xmlns:rdf="http://www.w3.org/1999/02/22-rdf-syntax-ns#" xmlns:rdfs="http://www.w3.org/2000/01/rdf-schema#" xmlns:dc="http://purl.org/dc/elements/1.1/"><rdf:Description about="https://iconscout.com/legal#licenses" dc:title="asset" dc:description="asset" dc:publisher="Iconscout" dc:date="2017-09-14" dc:format="image/svg+xml" dc:language="en"><dc:creator><rdf:Bag><rdf:li>Buatoom</rdf:li></rdf:Bag></dc:creator></rdf:Description></rdf:RDF></metadata></svg>