<?xml version="1.0" encoding="UTF-8"?><svg xmlns="http://www.w3.org/2000/svg" viewBox="0 0 64.88 62.43"><defs><style>.cls-1{fill:#b76a8a;opacity:0.15;}.cls-2,.cls-3,.cls-4{fill:none;stroke:#6a80b9;stroke-miterlimit:10;}.cls-2{stroke-width:5px;}.cls-3{stroke-width:3px;}.cls-4{stroke-width:2px;}.cls-5{fill:#6a80b9;}</style></defs><title>Asset 4</title><g id="Layer_2" data-name="Layer 2"><g id="icon"><path class="cls-1" d="M59.88 16.43h-49v41a5 5 0 0 0 5 5h44a5 5 0 0 0 5-5v-36a5 5 0 0 0-5-5z" fill="#b76a8a" opacity="0.15"/><rect class="cls-2" x="2.5" y="7.43" width="54" height="46" rx="2" ry="2" fill="none" stroke="#6a80b9" stroke-miterlimit="10" stroke-width="5px"/><path class="cls-3" fill="none" stroke="#6a80b9" stroke-miterlimit="10" stroke-width="3px" d="M16.4 0v15.59"/><path class="cls-3" fill="none" stroke="#6a80b9" stroke-miterlimit="10" stroke-width="3px" d="M29.5 0v15.59"/><path class="cls-3" fill="none" stroke="#6a80b9" stroke-miterlimit="10" stroke-width="3px" d="M42.6 0v15.59"/><path class="cls-4" fill="none" stroke="#6a80b9" stroke-miterlimit="10" stroke-width="2px" d="M2.5 21.66h54"/><path class="cls-5" fill="#6a80b9" d="M27.17 28.1h4.66v4.66h-4.66z"/><path class="cls-5" fill="#6a80b9" d="M40.27 28.1h4.66v4.66h-4.66z"/><path class="cls-5" fill="#6a80b9" d="M14.08 28.1h4.66v4.66h-4.66z"/><path class="cls-5" fill="#6a80b9" d="M27.17 39.83h4.66v4.66h-4.66z"/><path class="cls-5" fill="#6a80b9" d="M40.27 39.83h4.66v4.66h-4.66z"/><path class="cls-5" fill="#6a80b9" d="M14.08 39.83h4.66v4.66h-4.66z"/></g></g><metadata><rdf:RDF xmlns:rdf="http://www.w3.org/1999/02/22-rdf-syntax-ns#" xmlns:rdfs="http://www.w3.org/2000/01/rdf-schema#" xmlns:dc="http://purl.org/dc/elements/1.1/"><rdf:Description about="https://iconscout.com/legal#licenses" dc:title="asset" dc:description="asset" dc:publisher="Iconscout" dc:date="2017-09-14" dc:format="image/svg+xml" dc:language="en"><dc:creator><rdf:Bag><rdf:li>Buatoom</rdf:li></rdf:Bag></dc:creator></rdf:Description></rdf:RDF></metadata></svg>