<?xml version="1.0" encoding="UTF-8"?><svg xmlns="http://www.w3.org/2000/svg" viewBox="0 0 72.5 66.94"><defs><style>.cls-1{fill:#b76a8a;opacity:0.15;}.cls-2{fill:none;stroke:#6a80b9;stroke-miterlimit:10;stroke-width:5px;}</style></defs><title>Asset 12</title><g id="Layer_2" data-name="Layer 2"><g id="icon"><path class="cls-1" d="M52.5 10.5h-22a20.06 20.06 0 0 0-20 20v6A20.06 20.06 0 0 0 24 55.39v11.55L34.46 56.5h18a20.06 20.06 0 0 0 20-20v-6a20.06 20.06 0 0 0-19.96-20z" fill="#b76a8a" opacity="0.15"/><path class="cls-2" d="M44.5 2.5h-22a20.06 20.06 0 0 0-20 20v6A20.06 20.06 0 0 0 16 47.39v11.55L26.46 48.5h18a20.06 20.06 0 0 0 20-20v-6a20.06 20.06 0 0 0-19.96-20z" fill="none" stroke="#6a80b9" stroke-miterlimit="10" stroke-width="5px"/></g></g><metadata><rdf:RDF xmlns:rdf="http://www.w3.org/1999/02/22-rdf-syntax-ns#" xmlns:rdfs="http://www.w3.org/2000/01/rdf-schema#" xmlns:dc="http://purl.org/dc/elements/1.1/"><rdf:Description about="https://iconscout.com/legal#licenses" dc:title="asset" dc:description="asset" dc:publisher="Iconscout" dc:date="2017-09-14" dc:format="image/svg+xml" dc:language="en"><dc:creator><rdf:Bag><rdf:li>Buatoom</rdf:li></rdf:Bag></dc:creator></rdf:Description></rdf:RDF></metadata></svg>