<?xml version="1.0" encoding="UTF-8"?><svg xmlns="http://www.w3.org/2000/svg" viewBox="0 0 79.43 71.58"><defs><style>.cls-1{fill:#b76a8a;opacity:0.15;}.cls-2,.cls-3,.cls-4{fill:none;stroke:#6a80b9;stroke-miterlimit:10;}.cls-2{stroke-width:5px;}.cls-3{stroke-width:2px;}.cls-4{stroke-width:3px;}</style></defs><title>Asset 8</title><g id="Layer_2" data-name="Layer 2"><g id="icon"><path class="cls-1" d="M68.5 25.58h-57v41a5 5 0 0 0 5 5h52a5 5 0 0 0 5-5v-36a5 5 0 0 0-5-5z" fill="#b76a8a" opacity="0.15"/><rect class="cls-2" x="2.5" y="16.58" width="62" height="46" rx="2" ry="2" fill="none" stroke="#6a80b9" stroke-miterlimit="10" stroke-width="5px"/><path class="cls-3" fill="none" stroke="#6a80b9" stroke-miterlimit="10" stroke-width="2px" d="M2.5 50.67l21.81-21.81L47.65 52.2l8.41-8.4 6.79 6.79"/><path class="cls-4" d="M14.42 16.58L17 3.12a2 2 0 0 1 2.34-1.59l57 10.9a2 2 0 0 1 1.59 2.34L70 56a2 2 0 0 1-2.34 1.59L64.5 57" fill="none" stroke="#6a80b9" stroke-miterlimit="10" stroke-width="3px"/></g></g><metadata><rdf:RDF xmlns:rdf="http://www.w3.org/1999/02/22-rdf-syntax-ns#" xmlns:rdfs="http://www.w3.org/2000/01/rdf-schema#" xmlns:dc="http://purl.org/dc/elements/1.1/"><rdf:Description about="https://iconscout.com/legal#licenses" dc:title="asset" dc:description="asset" dc:publisher="Iconscout" dc:date="2017-09-14" dc:format="image/svg+xml" dc:language="en"><dc:creator><rdf:Bag><rdf:li>Buatoom</rdf:li></rdf:Bag></dc:creator></rdf:Description></rdf:RDF></metadata></svg>