<?xml version="1.0" encoding="UTF-8"?><svg xmlns="http://www.w3.org/2000/svg" viewBox="0 0 88.01 78"><defs><style>.cls-1{fill:#b76a8a;opacity:0.15;}.cls-2,.cls-3,.cls-4{fill:none;stroke:#6a80b9;stroke-miterlimit:10;}.cls-2{stroke-width:5px;}.cls-3{stroke-width:2px;}.cls-4{stroke-width:3px;}</style></defs><title>Asset 1</title><g id="Layer_2" data-name="Layer 2"><g id="icon"><path class="cls-1" d="M36.78 26.26a25.28 25.28 0 1 0 25.28 25.28 25.28 25.28 0 0 0-25.28-25.28z" fill="#b76a8a" opacity="0.15"/><circle class="cls-2" cx="29.99" cy="44.75" r="25.28" fill="none" stroke="#6a80b9" stroke-miterlimit="10" stroke-width="5px"/><circle class="cls-3" cx="29.99" cy="44.75" r="5.89" fill="none" stroke="#6a80b9" stroke-miterlimit="10" stroke-width="2px"/><path class="cls-4" fill="none" stroke="#6a80b9" stroke-miterlimit="10" stroke-width="3px" d="M29.68 20v-9"/><path class="cls-4" fill="none" stroke="#6a80b9" stroke-miterlimit="10" stroke-width="3px" d="M51.74 32.63l7.67-4.43"/><path class="cls-4" fill="none" stroke="#6a80b9" stroke-miterlimit="10" stroke-width="3px" d="M51.36 57.53l7.67 4.42"/><path class="cls-4" fill="none" stroke="#6a80b9" stroke-miterlimit="10" stroke-width="3px" d="M28.68 69v9"/><path class="cls-4" fill="none" stroke="#6a80b9" stroke-miterlimit="10" stroke-width="3px" d="M8.41 56.18L.75 60.61"/><path class="cls-4" fill="none" stroke="#6a80b9" stroke-miterlimit="10" stroke-width="3px" d="M9.3 31.78l-7.67-4.42"/><path class="cls-1" d="M75.32 9.54A12.68 12.68 0 1 0 88 22.22 12.68 12.68 0 0 0 75.32 9.54z" fill="#b76a8a" opacity="0.15"/><circle class="cls-4" cx="70.42" cy="17.32" r="12.68" fill="none" stroke="#6a80b9" stroke-miterlimit="10" stroke-width="3px"/><circle class="cls-3" cx="70.42" cy="17.32" r="2.95" fill="none" stroke="#6a80b9" stroke-miterlimit="10" stroke-width="2px"/><path class="cls-4" fill="none" stroke="#6a80b9" stroke-miterlimit="10" stroke-width="3px" d="M70.68 5V0"/><path class="cls-4" fill="none" stroke="#6a80b9" stroke-miterlimit="10" stroke-width="3px" d="M81.33 11.24l3.85-2.22"/><path class="cls-4" fill="none" stroke="#6a80b9" stroke-miterlimit="10" stroke-width="3px" d="M81.14 23.73l3.85 2.22"/><path class="cls-4" fill="none" stroke="#6a80b9" stroke-miterlimit="10" stroke-width="3px" d="M69.68 29v5"/><path class="cls-4" fill="none" stroke="#6a80b9" stroke-miterlimit="10" stroke-width="3px" d="M59.59 23.06l-3.84 2.21"/><path class="cls-4" fill="none" stroke="#6a80b9" stroke-miterlimit="10" stroke-width="3px" d="M60.04 10.81l-3.85-2.22"/></g></g><metadata><rdf:RDF xmlns:rdf="http://www.w3.org/1999/02/22-rdf-syntax-ns#" xmlns:rdfs="http://www.w3.org/2000/01/rdf-schema#" xmlns:dc="http://purl.org/dc/elements/1.1/"><rdf:Description about="https://iconscout.com/legal#licenses" dc:title="asset" dc:description="asset" dc:publisher="Iconscout" dc:date="2017-09-14" dc:format="image/svg+xml" dc:language="en"><dc:creator><rdf:Bag><rdf:li>Buatoom</rdf:li></rdf:Bag></dc:creator></rdf:Description></rdf:RDF></metadata></svg>